<?xml version="1.0" standalone="no"?>
<!DOCTYPE svg PUBLIC "-//W3C//DTD SVG 1.1//EN" "http://www.w3.org/Graphics/SVG/1.1/DTD/svg11.dtd" >
<!--
2013-9-30: Created.
-->
<svg>
<metadata>
Created by iconfont
</metadata>
<defs>

<font id="iconfont" horiz-adv-x="1024" >
  <font-face
    font-family="iconfont"
    font-weight="500"
    font-stretch="normal"
    units-per-em="1024"
    ascent="896"
    descent="-128"
  />
    <missing-glyph />
    
    <glyph glyph-name="crash" unicode="&#58907;" d="M672.60928 728.798976 313.6 337.285888l170.056704-111.860736L351.39072-128.798976 710.4 281.357056l-188.952576 93.216768L672.60928 728.798976z"  horiz-adv-x="1024" />

    
    <glyph glyph-name="inbox" unicode="&#58891;" d="M1255.203283 681.060789c-1.086539 8.218122-4.463773 16.159941-10.034622 22.8472C1212.191628 768.017553 1145.397452 812 1068.482778 812l-869.832741 0c-76.944545 0-143.744321-43.982447-176.728823-108.092011-5.563381-6.687259-8.940615-14.621611-10.027154-22.832265-7.686053-21.135247-11.89406-43.93204-11.89406-67.69029l0-626.772735c0-109.512727 89.101839-198.612699 198.650037-198.612699l869.825273 0c109.512727 0 198.614566 89.099972 198.614566 198.612699l0 626.772735C1267.089876 637.143684 1262.881869 659.925543 1255.203283 681.060789L1255.203283 681.060789zM198.650037 721.708941l869.832741 0c34.5303 0 65.304384-16.255154 85.155199-41.486393L784.384437 281.264661C743.919242 237.480107 690.353965 213.393281 633.566407 213.393281c-56.830496-0.02427-110.438712 24.092426-150.905774 67.869513l-13.856179 14.974456c-1.779162 2.841431-3.864496 5.542845-6.33628 8.012762-1.598072 1.596205-3.304424 2.996385-5.053715 4.303219l-343.934556 371.673051C133.338185 705.461255 164.127205 721.708941 198.650037 721.708941L198.650037 721.708941zM1068.482778-121.708941l-869.832741 0c-59.733536 0-108.360845 48.580637-108.360845 108.32164l0 585.700795 277.017165-299.377102-172.929668-172.89233c-17.63293-17.612395-17.63293-46.196598 0-63.829528 8.817399-8.826733 20.367948-13.228898 31.920365-13.228898 11.55055 0 23.102966 4.4115 31.918498 13.228898l170.829399 170.792061c56.167744-54.237363 128.131384-83.900638 204.478519-83.900638l0.042939 0c82.209221 0 159.269515 34.339875 217.00546 96.713217l183.606506-183.604639c8.817399-8.826733 20.367948-13.228898 31.920365-13.228898s23.102966 4.4115 31.920365 13.228898c17.63293 17.63293 17.63293 46.198465 0 63.829528L911.946414 286.114884l264.852403 286.16874 0-585.669058C1176.800684-73.126437 1128.216313-121.708941 1068.482778-121.708941L1068.482778-121.708941zM1068.482778-121.708941"  horiz-adv-x="1268" />

    
    <glyph glyph-name="iconfontxiangshangjiantou" unicode="&#58977;" d="M825.349661 360.645219c-17.330714 21.897729-37.402865 48.350195-60.207243 79.370699-22.806425 31.021527-46.531779 63.176878-71.15662 96.474238-24.632004 33.298384-48.579415 65.682955-71.842235 97.15883-23.266913 31.470759-44.017516 58.608839-62.262042 81.421404-15.708773 20.063965-30.789237 30.930453-45.245484 32.639375L514.636037 747.948195c-0.696872 0.005117-1.39272 0.002047-2.085498-0.035816-0.692778 0.037862-1.388627 0.039909-2.085498 0.035816l0-0.23843c-14.455223-1.709945-29.53671-12.57541-45.245484-32.639375-18.244526-22.812565-38.994106-49.950645-62.262042-81.421404-23.26282-31.475875-47.209208-63.860447-71.842235-97.15883-24.625864-33.296337-48.350195-65.452711-71.15662-96.474238-22.804379-31.019481-42.87653-57.472969-60.207243-79.370699-16.424064-20.9788-21.213137-38.087457-14.367219-51.313689 6.836709-13.226233 22.576181-19.84293 47.208185-19.84293 15.511275 0 33.069163-0.456395 52.685943-1.363044 19.61371-0.913812 36.259832-1.37123 49.949622-1.37123 19.158339 0.913812 31.470759-6.616698 36.944424-22.576181 5.473665-15.96767 8.208962-37.638225 8.208962-65.00348l0-64.317864c0-23.718191 0.229221-47.438429 0.684592-71.15662 0.457418-23.718191 0.684592-46.067198 0.684592-67.053162l0-53.368488c0-31.013341 5.246491-53.597709 15.738449-67.737754 10.486842-14.139022 30.786167-21.205974 60.891835-21.205974 20.72502 0 38.754652 0.208754 54.169737 0.617054 15.414061-0.408299 33.443693-0.617054 54.168714-0.617054 30.106692 0 50.404993 7.067976 60.891835 21.205974 10.491958 14.140045 15.738449 36.724413 15.738449 67.737754L643.349537-3.352983c0 20.985964 0.227174 43.333948 0.684592 67.053162 0.456395 23.718191 0.684592 47.438429 0.684592 71.15662l0 64.317864c0 27.365254 2.734274 49.03581 8.208962 65.00348 5.473665 15.959483 17.787108 23.489994 36.945447 22.576181 13.688767 0 30.334889 0.457418 49.949622 1.37123 19.615757 0.906649 37.173644 1.363044 52.685943 1.363044 24.632004 0 40.370453 6.616698 47.208185 19.84293C846.562798 322.557762 841.773725 339.666418 825.349661 360.645219z"  horiz-adv-x="1024" />

    
    <glyph glyph-name="yonghu1" unicode="&#58958;" d="M686.587805 286.073826c-18.202571-14.628162-38.261419-26.630521-59.916625-35.790134-31.3101-13.241582-64.532759-19.957541-98.749048-19.957541-34.223452 0-67.452251 6.714935-98.764398 19.956517-21.576411 9.126868-41.566698 21.073968-59.716057 35.626405-106.380866-29.806863-177.941692-109.908202-183.553503-315.018673l683.261549 0C869.131305 176.372332 795.130917 256.394876 686.587805 286.073826zM527.922133 681.178489c-108.913549 0-197.183941-88.271416-197.184965-197.178825 0-108.905362 88.272439-197.178825 197.184965-197.178825 108.877733 0 197.177801 88.274486 197.177801 197.178825C725.099934 592.90605 636.799866 681.178489 527.922133 681.178489z"  horiz-adv-x="1024" />

    
    <glyph glyph-name="niao" unicode="&#58884;" d="M66.024832 762.431703c0 0 164.419947-267.419641 435.54837-270.391573 0 0-45.906526 184.22192 111.40143 294.16089 0 0 128.267242 86.167609 246.853223-56.455451 0 0 70.18377 0 128.267242 62.397269 0 0-16.941439-90.08181-77.443948-140.123285 0 0 41.142034-14.385455 108.904722 42.071018 0 0-41.142034-98.053289-104.064603-136.681241 0 0 36.303959-609.123254-488.865306-760.659041 0 0-258.952499-53.482497-425.943759 103.998174 0 0 181.509573-29.715224 292.836398 103.99102 0 0-137.946458 17.831587-181.509573 181.254077 0 0 43.561071-5.941818 82.284067 2.971931 0 0-169.409275 98.053289-157.307956 258.50487 0 0 41.142034-35.657042 89.544246-26.742271C126.529386 420.729112-21.100376 548.496604 66.024832 762.431703z"  horiz-adv-x="1024" />

    
    <glyph glyph-name="page1copy" unicode="&#58924;" d="M492.882353 861.544103C226.732706 861.544103 11 645.811397 11 379.661752 11 113.512105 226.732706-102.220601 492.882353-102.220601 759.032001-102.220601 974.764707 113.512105 974.764707 379.661752 974.764707 645.811397 759.032001 861.544103 492.882353 861.544103L492.882353 861.544103ZM402.529412 78.485281 203 338.249987 291.485647 430.50034 402.55953 289.308811 750.809883 573.559162 794.11906 530.249985 402.589647 78.485281 402.529412 78.485281Z"  horiz-adv-x="1024" />

    
    <glyph glyph-name="usercomment" unicode="&#58937;" d="M512.266571 767.243521c-239.912092 0-435.106726-144.449903-435.106726-321.998645 0-99.070366 60.190871-191.113689 163.795507-251.700579 2.399653-1.681292 4.89345-3.344165 7.443529-5.024433 13.527085-8.955976 21.934568-15.020088 24.125467-26.394137 2.889817-15.037485-3.533476-47.191812-50.555419-114.939799-4.38282-6.328126-4.609994-14.640442-0.566912-21.195741 3.551896-5.762237 9.80532-9.182127 16.454764-9.182127 0.906649 0 1.832741 0.056282 2.739391 0.188288 44.415582 6.347568 100.166327 36.46347 142.05025 76.722382 32.267914 31.001061 45.417399 33.477462 59.245336 33.477462 2.532683 0 5.101181-0.096191 6.688329-0.151449 23.822568-2.587941 44.056402-3.797489 63.685461-3.797489 239.931534 0 435.106726 144.449903 435.106726 321.999668S752.197082 767.243521 512.266571 767.243521zM512.266571 161.937438c-18.193361 0-37.104059 1.1328-60.606333 3.665483-30.132274 1.587148-52.482305-2.323928-95.821369-44.00012-23.180955-22.275329-49.251727-39.162952-72.829725-50.40397 23.502273 41.523719 32.305777 73.338309 27.507494 98.239442-5.365194 27.92091-25.844621 41.467437-40.787962 51.347458-2.229784 1.493004-4.440126 2.948145-7.896854 5.290493-92.780103 54.315046-145.979746 134.210701-145.979746 219.168652 0 156.219971 177.832198 283.307438 396.415518 283.307438 218.583321 0 396.415518-127.087467 396.415518-283.307438S730.849892 161.937438 512.266571 161.937438zM487.630475 670.515502c-172.996053 0-313.742611-104.814184-313.742611-233.649458 0-10.683317 8.653077-19.345604 19.345604-19.345604 10.674107 0 19.345604 8.662287 19.345604 19.345604 0 107.49627 123.385145 194.95825 275.051403 194.95825 10.69355 0 19.345604 8.662287 19.345604 19.345604C506.976078 661.853216 498.324024 670.515502 487.630475 670.515502z"  horiz-adv-x="1024" />

    
    <glyph glyph-name="new" unicode="&#59049;" d="M128.259664 639.82655l85.275175 0 0-85.275175-85.275175 0L128.259664 639.82655zM341.448114 639.82655l554.291199 0 0-85.275175L341.448114 554.551374 341.448114 639.82655zM128.259664 426.638099l85.275175 0 0-85.276199-85.275175 0L128.259664 426.638099zM341.448114 426.638099l554.291199 0 0-85.276199L341.448114 341.361901 341.448114 426.638099zM128.259664 213.448626l85.275175 0 0-85.275175-85.275175 0L128.259664 213.448626zM341.448114 213.448626l554.291199 0 0-85.275175L341.448114 128.17345 341.448114 213.448626z"  horiz-adv-x="1024" />

    
    <glyph glyph-name="message" unicode="&#58950;" d="M854.496 18.656 169.504 18.656c-63.072 0-114.176 50.336-114.176 112.416L55.328 636.928c0 62.08 51.104 112.416 114.176 112.416l684.992 0c63.072 0 114.176-50.304 114.176-112.416l0-505.856C968.672 68.992 917.568 18.656 854.496 18.656zM198.048 693.12 512 424.416l313.952 268.736L198.048 693.152zM911.584 636.928c0 16.192-7.04 30.656-18.144 40.896L512 355.904 130.56 677.824c-11.104-10.24-18.144-24.736-18.144-40.896l0-505.856c0-31.04 25.568-56.192 57.088-56.192l684.992 0c31.52 0 57.088 25.152 57.088 56.192L911.584 636.928z"  horiz-adv-x="1024" />

    
    <glyph glyph-name="mapson" unicode="&#59258;" d="M355.328 520.192c0 84.992 66.56 154.112 148.992 154.112 81.92 0 148.992-69.12 148.992-154.112 0-84.992-66.56-154.112-148.992-154.112C421.888 366.08 355.328 435.2 355.328 520.192M757.76 315.904c48.64 54.784 77.824 124.928 77.824 202.752 0 174.08-146.944 315.392-328.192 315.392-7.168 0-13.824 0-20.992-0.512-162.304-9.728-294.4-135.68-306.176-291.328C173.568 455.68 206.848 379.904 256 315.904c8.192-10.752 245.76-238.08 251.392-238.08C515.072 77.824 757.248 315.392 757.76 315.904M716.8 152.576l-45.056 1.024 37.888-19.968c30.72-14.336 47.616-31.232 47.616-47.104 0-39.424-102.4-82.944-249.344-82.944-146.944 0-249.344 43.52-249.344 82.944 0 16.384 16.896 32.768 47.616 47.104l41.472 20.992c-23.552 3.072-48.64-1.536-48.64-1.536C218.112 129.024 174.08 93.696 174.08 53.76c0-70.656 146.432-125.952 333.312-125.952 186.88 0 333.312 55.296 333.312 125.952C840.704 93.696 796.672 129.024 716.8 152.576z"  horiz-adv-x="1024" />

    
    <glyph glyph-name="erjidaohangkanban" unicode="&#58925;" d="M187.69 772.776c0-51.63-41.853-93.491-93.48-93.491-51.628 0-93.482 41.861-93.482 93.491 0 51.619 41.853 93.481 93.482 93.481 51.627-0.001 93.48-41.863 93.48-93.481zM1024.728 772.783c0-35.457-28.724-64.198-64.174-64.198h-653.597c-35.456 0-64.197 28.742-64.197 64.198v0c0 35.43 28.742 64.171 64.197 64.171h653.596c35.451 0.001 64.175-28.742 64.175-64.171v0zM0.727 382.386c-0-51.628 41.853-93.481 93.481-93.481s93.481 41.853 93.481 93.481c0 0 0 0 0 0 0 51.628-41.853 93.481-93.481 93.481-51.628 0-93.481-41.853-93.481-93.481 0-0 0-0 0-0zM1024.728 382.386c0-35.447-28.724-64.189-64.174-64.189h-653.597c-35.456 0-64.197 28.742-64.197 64.189v0c0 35.447 28.742 64.171 64.197 64.171h653.596c35.451-0.001 64.175-28.725 64.175-64.171v0zM187.69-6.538c0-51.629-41.853-93.492-93.48-93.492-51.628 0-93.482 41.863-93.482 93.492s41.853 93.48 93.482 93.48c51.627 0 93.48-41.851 93.48-93.48zM1024.728-6.553c0-35.448-28.724-64.183-64.174-64.183l-653.597 0c-35.456 0-64.197 28.734-64.197 64.183v0c0 35.465 28.742 64.206 64.197 64.206l653.596-0c35.451 0 64.175-28.742 64.175-64.206v0z"  horiz-adv-x="1025" />

    
    <glyph glyph-name="shejitu" unicode="&#59115;" d="M590.644 487.708h256.754c28.24 0 51.2 22.959 51.2 51.2V774.06c0 28.32-22.96 51.2-51.2 51.2H590.644c-28.24 0-51.2-22.96-51.2-51.2v-92.281H326.187c-28.24 0-51.2-22.96-51.2-51.2v-85.015a51.194 51.194 0 0 1-8.677-6.959L90.032 412.331c-19.969-19.969-19.969-52.439 0-72.408l178.552-121.547a51.252 51.252 0 0 1 6.403-5.422v-67.553c0-28.241 22.96-51.2 51.2-51.2h212.256v-92.281c0-28.241 22.96-51.2 51.2-51.2h256.754c28.24 0 51.2 22.959 51.2 51.2V237.073c0 28.32-22.96 51.2-51.2 51.2H589.644c-28.24 0-51.2-22.96-51.2-51.2v-91.671H326.187v62.664a50.988 50.988 0 0 1 14.805 10.311L520.271 336.65c20.025 20.025 19.969 52.439 0 72.408L338.719 538.605a51.048 51.048 0 0 1-12.531 9.198v82.776h213.256v-91.671c0-28.241 22.96-51.2 51.2-51.2z m0 286.352h256.754v-235.152H590.644V774.06z m-1-536.987h256.754v-235.152H589.644V237.073zM484.067 372.854L304.788 254.581 126.236 376.128l176.279 126.274 181.552-129.548z"  horiz-adv-x="1024" />

    
    <glyph glyph-name="youxiang" unicode="&#58969;" d="M847.988 719.887H176.621c-61.719 0-111.894-50.176-111.894-111.895v-447.578c0-61.719 50.175-111.894 111.894-111.894h671.387c61.719 0 111.894 50.175 111.894 111.894V607.992c-0.02 61.719-50.195 111.895-111.914 111.895z m-6.523-64.18c5.488 0 10.41-1.621 15.39-3.125L525.86 325.062c-10.859-10.859-21.777-10.859-32.734-0.058L166.758 652.19c5.586 1.856 11.308 3.516 17.46 3.516h657.247z m55.957-486.777c0-30.88-25.059-55.957-55.957-55.957H184.219c-30.82 0-55.957 25.058-55.957 55.957V599.75c0 3.516 1.347 6.543 2.011 9.844l323.633-324.492c16.387-16.114 30.274-24.22 51.817-24.22 21.601 0 43.144 8.165 59.53 24.395L895.06 611.625c0.84-3.926 2.343-7.656 2.343-11.855v-430.84z"  horiz-adv-x="1024" />

    
    <glyph glyph-name="log_out" unicode="&#58895;" d="M532.3 219.7H498c-83.7 0-151.6 73.5-151.6 164.3 0 90.7 67.9 164.3 151.6 164.3h38.6c28.3 0 51.2 22.9 51.2 51.2v49.1c0 65.7-49.6 119.5-110.3 119.5H174.3C113.6 768 64 714.2 64 648.5v-529.1C64 53.8 113.6 0 174.3 0h303.3c60.6 0 110.3 53.8 110.3 119.5v44.7c-0.1 30.7-24.9 55.5-55.6 55.5zM960 384.2c0 16-5.9 30.6-15.5 41.8-1.2 1.5-2.5 2.9-3.9 4.3L744.7 625.1c-20.1 19.9-52.5 19.9-72.5 0l-0.3-0.3c-19.8-19.9-19.6-52.1 0.3-71.8l70.8-70.4c12.7-12.6 3.7-34.2-14.1-34.2H512.2c-35.4 0-64.2-28.7-64.2-64.2v-0.4c0-35.4 28.7-64.2 64.2-64.2h216.7c17.9 0 26.8-21.6 14.1-34.2 0 0-73.7-70.9-74.6-71.8-19.1-20.6-16.8-51.5 3.8-70.6 20.1-19.9 52.5-19.9 72.5 0l195.8 194.7 0.3 0.3c1.3 1.3 2.5 2.6 3.6 4 9.7 11.2 15.5 25.8 15.5 41.8v0.4h0.1z"  horiz-adv-x="1024" />

    
    <glyph glyph-name="gallery" unicode="&#59039;" d="M970.98512 775.66771H53.517952c-21.157046 0-38.509848-15.792642-38.509848-35.572926v-712.463392c0-19.300137 17.351529-35.318206 38.509848-35.318206h917.467168c20.656521 0 38.009323 16.018069 38.009323 35.318206V740.094784c0 19.785378-17.352802 35.572926-38.009323 35.572926z m-38.484376-712.995757H91.496709v77.893386l197.229721 181.814064 135.909693-125.230556v-0.231795l0.550196-0.50944 0.276371-0.25472 0.525997-0.485242 0.275097-0.25472 0.550196-0.485242 80.299216-74.403721a25.078461 25.078461 0 0 1 32.550673 0c8.6885 8.533121 8.6885 22.04984 0 30.048049l-65.651541 60.113927 185.563543 171.52847 272.921052-251.918112v-67.628168z m0 127.473367L675.824462 427.062969a24.409821 24.409821 0 0 1-32.525201 0L441.991473 240.741633l-137.260984 126.225238a23.252118 23.252118 0 0 1-31.999204 0L91.496709 200.661436V705.031298h841.004035V190.14532z m-629.121544 230.903709c72.962006 0 133.205841 55.5901 133.20584 123.220815 0 67.354344-60.241288 122.711375-133.20584 122.711375-73.232009 0-133.205841-55.357031-133.205841-122.711375 0-67.628168 59.967463-123.220815 133.205841-123.220815z m0 203.357011c48.023641 0 87.635153-36.081093 87.635153-80.136196 0-44.586194-39.608965-81.12833-87.635153-81.12833-47.999443 0-87.610955 36.543409-87.610955 81.12833 0 44.055103 39.608965 80.136196 87.610955 80.136196z"  horiz-adv-x="1024" />

    
    <glyph glyph-name="baocuoshj-icon-repo" unicode="&#58944;" d="M523.636364 577.163636h-23.272728c-6.981818 0-11.636364-4.654545-11.636363-11.636363v-349.090909c0-6.981818 4.654545-11.636364 11.636363-11.636364h23.272728c6.981818 0 11.636364 4.654545 11.636363 11.636364v349.090909c0 4.654545-4.654545 11.636364-11.636363 11.636363zM523.636364 134.981818h-23.272728c-6.981818 0-11.636364-4.654545-11.636363-11.636363v-58.181819c0-6.981818 4.654545-11.636364 11.636363-11.636363h23.272728c6.981818 0 11.636364 4.654545 11.636363 11.636363v58.181819c0 4.654545-4.654545 11.636364-11.636363 11.636363zM965.818182 86.109091l-372.363637 691.2C577.163636 807.563636 544.581818 826.181818 512 826.181818c-34.909091 0-65.163636-18.618182-81.454545-48.872727l-372.363637-691.2c-16.290909-30.254545-16.290909-69.818182 2.327273-97.745455 16.290909-27.927273 46.545455-46.545455 79.127273-46.545454h744.727272c32.581818 0 62.836364 16.290909 79.127273 46.545454 18.618182 27.927273 18.618182 65.163636 2.327273 97.745455zM884.363636-13.963636H139.636364c-37.236364 0-58.181818 41.890909-41.890909 76.8L470.109091 756.363636c9.309091 16.290909 25.6 25.6 41.890909 25.6s32.581818-9.309091 41.890909-25.6l372.363636-691.2c16.290909-34.909091-6.981818-79.127273-41.890909-79.127272z"  horiz-adv-x="1024" />

    
    <glyph glyph-name="formsright" unicode="&#59009;" d="M371.498667 371.498667a42.666667 42.666667 0 1 1-60.330667-60.330667l85.333333-85.333333a42.666667 42.666667 0 0 1 60.330667 0l213.333333 213.333333a42.666667 42.666667 0 1 1-60.330666 60.330667L426.666667 316.330667l-55.168 55.168z"  horiz-adv-x="1024" />

    
    <glyph glyph-name="gallery1" unicode="&#58880;" d="M160 734.72c-35.072 0-64-26.432-64-58.496v-584.448c0-32.064 28.928-58.496 64-58.496h704c35.072 0 64 26.432 64 58.496V676.224c0 32.064-28.928 58.496-64 58.496h-704z m0-39.04h704c12.16 0 21.312-8.32 21.312-19.456v-420.416l-134.336 122.688a22.4 22.4 0 0 1-15.424 5.632 22.272 22.272 0 0 1-15.232-6.208l-134.336-131.2-208.32 190.272a22.592 22.592 0 0 1-17.28 5.44 22.4 22.4 0 0 1-12.032-4.864l-209.664-174.72v413.44c0 11.072 9.152 19.456 21.312 19.456zM576 628.096c-58.688 0-106.688-48-106.688-106.688 0-58.624 48-106.624 106.688-106.624s106.688 48 106.688 106.624c0 58.688-48 106.688-106.688 106.688z m0-42.688c35.584 0 64-28.352 64-64 0-35.584-28.416-64-64-64s-64 28.416-64 64c0 35.648 28.416 64 64 64zM361.984 396.16l209.664-191.488a22.4 22.4 0 0 1 15.488-5.632 22.272 22.272 0 0 1 15.168 6.272l134.4 131.2 148.608-135.808v-108.928c0-11.136-9.152-19.52-21.312-19.52h-704c-12.16 0-21.312 8.32-21.312 19.52v118.08l223.36 186.304z"  horiz-adv-x="1024" />

    
    <glyph glyph-name="OtherPages" unicode="&#58897;" d="M717.123 339.088H309.678c-14.306 0-25.915-11.604-25.915-25.914 0-14.305 11.608-25.914 25.915-25.914h407.445c14.309 0 25.913 11.609 25.913 25.914 0 14.31-11.604 25.914-25.913 25.914zM717.123 199.395H309.678c-14.306 0-25.915-11.609-25.915-25.914 0-14.311 11.608-25.914 25.915-25.914h407.445c14.309 0 25.913 11.604 25.913 25.914 0 14.304-11.604 25.914-25.913 25.914zM306.81 424.053h407.481c14.306 0 25.915 11.61 25.915 25.915 0 14.309-11.609 25.915-25.915 25.915H306.81c-14.307 0-25.915-11.605-25.915-25.915 0.001-14.305 11.608-25.915 25.915-25.915zM312.547 573.671h200.095c14.305 0 25.913 11.605 25.913 25.915 0 14.304-11.608 25.915-25.913 25.915H312.547c-14.307 0-25.915-11.61-25.915-25.915 0.001-14.31 11.608-25.915 25.915-25.915zM828.54 559.427L618.323 758.513c-4.788 4.521-11.201 7.019-17.816 7.019H279.211c-50.648 0-91.849-42.52-91.849-94.752v-573.559c0-52.23 41.2-94.752 91.849-94.752h465.582c50.612 0 91.845 42.521 91.845 94.752V540.667c0 7.09-2.902 13.902-8.098 18.76z m-203.4 121.207l125.994-119.315h-95.559c-16.803 0-30.436 14.844-30.436 32.933v86.382z m119.653-626.337H279.211c-22.07 0-40.02 19.234-40.02 42.924V670.78c0 23.689 17.95 42.923 40.02 42.923h294.1v-119.451c0-46.702 36.914-84.762 82.265-84.762h129.233v-412.27c0-23.689-17.948-42.923-40.016-42.923z"  horiz-adv-x="1024" />

    
    <glyph glyph-name="dashbord" unicode="&#58906;" d="M818.731 51.974l-56.604 56.605a314.778 314.778 0 0 1 56.882 180.975c0 84.722-32.969 164.369-92.862 224.266a314.812 314.812 0 0 1-224.148 92.884 314.97 314.97 0 0 1-224.187-92.884 315.183 315.183 0 0 1-92.827-224.266c0-65.701 20.054-128.21 56.847-180.993l-56.569-56.587a393.175 393.175 0 0 0-79.53 237.58c0 105.902 41.213 205.464 116.045 280.34a393.62 393.62 0 0 0 280.22 116.104 393.619 393.619 0 0 0 280.218-116.104 393.976 393.976 0 0 0 116.048-280.34c0.001-86.922-28.175-169.345-79.533-237.58z m-554.49 277.384c21.885 0 39.626-17.741 39.626-39.626s-17.741-39.626-39.626-39.626c-21.886 0-39.625 17.741-39.625 39.626s17.739 39.626 39.625 39.626z m41.606 156.506a39.639 39.639 0 0 0 38.535 10.82 39.63 39.63 0 0 0 28.31-28.292 39.623 39.623 0 0 0-10.793-38.541c-15.543-15.022-40.258-14.817-55.549 0.462-15.29 15.281-15.514 39.997-0.503 55.551z m156.526 41.627a39.613 39.613 0 0 0 19.54 35.058 39.628 39.628 0 0 0 40.137 0.013 39.628 39.628 0 0 0 19.554-35.052c-0.475-21.535-18.066-38.743-39.604-38.75-21.542-0.005-39.139 17.197-39.627 38.731z m148.6-148.086s-41.096-190.026-57.499-218.461c-16.524-28.186-52.702-37.752-80.999-21.414-28.295 16.338-38.1 52.451-21.95 80.854 16.405 28.435 160.448 159.021 160.448 159.021z m87.158 106.459c15.474-15.473 15.474-40.56 0-56.033s-40.56-15.473-56.033 0a39.626 39.626 0 0 0-10.806 38.538 39.617 39.617 0 0 0 28.301 28.301 39.625 39.625 0 0 0 38.538-10.806z m41.627-156.506c21.885 0 39.626-17.741 39.626-39.626s-17.741-39.626-39.626-39.626-39.626 17.741-39.626 39.626 17.741 39.626 39.626 39.626z m0 0"  horiz-adv-x="1024" />

    
    <glyph glyph-name="she-zhi" unicode="&#59270;" d="M661.637-21.74c-16.276 0.006-32.107 6.728-42.317 18.008-13.921 15.262-58.03 54.952-94.141 54.952-35.855 0-80.645-39.92-93.512-53.898-10.194-11.09-25.902-17.7-42.02-17.7-7.68 0-14.924 1.47-21.54 4.373l-1.157 0.507-109.747 61.368-1.09 0.763c-19.973 13.983-27.577 41.344-17.68 63.636 0.077 0.164 10.128 23.353 10.128 44.488 0 64.138-52.189 116.337-116.337 116.337h-3.886l-0.707-0.016c-18.375 0-33.336 16.323-38.123 41.59-0.379 2.023-9.36 49.936-9.36 87.685 0 37.755 8.976 85.673 9.36 87.696 4.838 25.584 20.127 42.014 38.825 41.574h3.891c64.143 0 116.337 52.188 116.337 116.332 0 21.13-10.04 44.313-10.148 44.544-9.892 22.266-2.238 49.617 17.833 63.56l1.136 0.788 115.815 63.626 1.208 0.512c6.523 2.78 13.665 4.188 21.233 4.188 16.087 0 31.82-6.472 42.112-17.316 13.711-14.351 57.037-51.681 92.114-51.681 34.739 0 77.803 36.593 91.468 50.693 10.23 10.619 25.862 16.983 41.78 16.983 7.72 0 14.996-1.464 21.632-4.342l1.172-0.512 111.862-62.146 1.111-0.773c20.014-13.968 27.633-41.324 17.73-63.627-0.071-0.168-10.127-23.357-10.127-44.492 0-64.144 52.188-116.332 116.337-116.332h3.891c18.678 0.415 33.981-15.99 38.825-41.574 0.384-2.028 9.36-49.936 9.36-87.69s-8.976-85.673-9.365-87.69c-4.839-25.585-20.147-41.954-38.825-41.57h-3.886c-64.144 0-116.337-52.193-116.337-116.342 0-21.13 10.046-44.303 10.143-44.534 9.881-22.256 2.242-49.612-17.792-63.564l-1.116-0.789-113.756-62.868-1.183-0.512c-6.518-2.816-13.63-4.235-21.15-4.235z m-3.456 53.592c0.512-0.328 1.95-0.896 3.456-0.896l0.174 0.005 106.276 58.741c-2.565 5.955-14.295 34.883-14.295 65.05 0 90.23 71.066 164.178 160.169 168.801 1.28 7.081 8.238 46.92 8.238 76.8s-6.958 69.699-8.238 76.8c-89.098 4.629-160.169 78.572-160.169 168.802 0 30.213 11.77 59.177 14.31 65.09l-104.555 58.087c-0.118 0.005-0.271 0.015-0.44 0.015-1.782 0-3.446-0.65-3.994-1.024-1.761-1.807-16.911-17.173-38.682-32.487-32.23-22.666-62.7-34.165-90.578-34.165-28.14 0-58.86 11.725-91.29 34.841-21.903 15.611-37.13 31.273-38.89 33.111-0.559 0.38-2.243 1.045-4.04 1.045a7.987 7.987 0 0 1-0.374-0.01l-108.298-59.48c2.595-6.03 14.284-34.908 14.284-65.023 0-90.225-71.065-164.173-160.169-168.802-1.28-7.086-8.238-46.914-8.238-76.8 0-29.88 6.958-69.698 8.249-76.795 89.093-4.628 160.158-78.581 160.158-168.806 0-30.275-11.811-59.284-14.325-65.126l102.502-57.314c0.062-0.01 0.143-0.01 0.23-0.01 1.496 0 2.914 0.548 3.42 0.876 1.92 2.058 17.224 18.263 39.276 34.432 32.865 24.09 64.103 36.3 92.83 36.3 29.01 0 60.483-12.446 93.543-36.997 22.18-16.46 37.55-32.973 39.46-35.061zM525.558 246.016c-85.427 0-154.926 69.504-154.926 154.926 0 85.427 69.499 154.926 154.926 154.926 85.427 0 154.931-69.499 154.931-154.926 0-85.422-69.51-154.926-154.931-154.926z m0 257.157c-56.371 0-102.226-45.86-102.226-102.226 0-56.376 45.86-102.236 102.226-102.236s102.23 45.86 102.23 102.236c0 56.366-45.859 102.226-102.23 102.226z"  horiz-adv-x="1024" />

    
    <glyph glyph-name="arrow-up-copy" unicode="&#58885;" d="M759.54231454 524.95759392l45.00523567-43.4788227-302.82689096-304.35253144-302.82689093 304.35253144 45.00523566 43.4788227 257.82242775-256.29678724z"  horiz-adv-x="1024" />

    
    <glyph glyph-name="arrow-right" unicode="&#58887;" d="M399.399 383.754l292.155 292.16c12.27799999 12.27 12.278 32.186-1e-8 44.457-12.27 12.27799999-32.186 12.278-44.45699999 0l-314.38699999-314.389c-12.28099999-12.27-12.281-32.186-1e-8-44.457l314.388-314.38800001c6.137-6.14 14.183-9.211 22.228-9.21099999s16.092 3.071 22.228 9.211c12.28099999 12.27 12.281 32.186 0 44.457l-292.157 292.161z"  horiz-adv-x="1024" />

    
    <glyph glyph-name="arrow-right1" unicode="&#58886;" d="M624.601 384.246l-292.155-292.16c-12.27799999-12.27-12.278-32.186 1e-8-44.457 12.27-12.27799999 32.186-12.278 44.45699999 0l314.38699999 314.389c12.28099999 12.27 12.281 32.186 1e-8 44.457l-314.388 314.38800001c-6.137 6.14-14.183 9.211-22.228 9.21099999s-16.092-3.071-22.228-9.211c-12.28099999-12.27-12.281-32.186 0-44.457l292.157-292.161z"  horiz-adv-x="1024" />

    
    <glyph glyph-name="up" unicode="&#58888;" d="M511.92559654 447.20434019l163.44146388-163.43866676c6.8641387-6.86973294 18.00563717-6.86973294 24.87033531 0 6.87029237 6.8641387 6.87029237 18.00563717 0 24.8703353l-175.87635183 175.87635182c-6.8641387 6.86973294-18.00563717 6.86973294-24.8703353-1e-8l-175.87579238-175.87635181c-3.43486648-3.43262877-5.15285913-7.93431777-5.15285915-12.43488795s1.71799266-9.00225918 5.15285915-12.43488791c6.8641387-6.86973294 18.00563717-6.86973294 24.87033528-1e-8l163.44090448 163.43866676z"  horiz-adv-x="1024" />

    
    <glyph glyph-name="arrow" unicode="&#58890;" d="M512.09631812 302.17956269l-211.58123015 211.57760918c-8.88589025 8.89313221-23.30898642 8.89313221-32.19560088 0-8.89385641-8.88589025-8.89385641-23.30898642 0-32.19560087l227.67866851-227.67866849c8.88589025-8.89313221 23.30898642-8.89313221 32.19560087 0l227.67794429 227.67866849c4.44656611 4.44366932 6.67057336 10.27127802 6.67057336 16.09743834s-2.22400724 11.65376902-6.67057336 16.09743833c-8.88589025 8.89313221-23.30898642 8.89313221-32.19560086 0l-211.58050598-211.57760918z"  horiz-adv-x="1024" />

    
    <glyph glyph-name="fankui" unicode="&#58911;" d="M809.266046 57.132778H213.730524c-17.058305 0-31.10632 14.048016-31.10632 31.608035s14.048016 31.608035 31.10632 31.608036h595.033807c17.058305 0 31.10632-14.048016 31.106321-31.608036 0.501715-17.56002-13.546301-31.608035-30.604606-31.608035zM809.266046 258.320431H213.730524c-17.058305 0-31.10632 14.048016-31.10632 31.608035s14.048016 31.608035 31.10632 31.608036h595.033807c17.058305 0 31.10632-14.048016 31.106321-31.608036 0.501715-17.56002-13.546301-31.608035-30.604606-31.608035zM517.268006 452.985791H213.730524c-17.058305 0-31.10632 14.048016-31.10632 31.608036s14.048016 31.608035 31.10632 31.608035H516.766291c17.058305 0 31.10632-14.048016 31.10632-31.608035s-13.546301-31.608035-30.604605-31.608036zM960.783929 877.938266l-244.836844-291.998041c-11.037727-13.044586-9.532582-33.11318 3.512004-44.150906 13.044586-11.037727 33.11318-9.532582 44.150906 3.512004L1008.44684 837.299363c11.037727 13.044586 9.532582 33.11318-3.512004 44.150906-13.044586 11.037727-32.611465 9.532582-44.150907-3.512003zM652.731014 507.170995l-1.505144-1.505145c-12.041156-12.041156-12.041156-32.10975 0-44.150906 12.041156-12.041156 32.10975-12.041156 44.150906 0l1.505145 1.505144c12.041156 12.041156 12.041156 32.10975 0 44.150907-12.041156 12.041156-31.608035 12.041156-44.150907 0zM692.868202 757.526703c0-17.56002-14.549731-32.10975-32.10975-32.109751H116.899559c-25.085742 0-45.656051-20.570309-45.656051-45.65605v-690.359628c0-25.085742 20.570309-45.656051 45.656051-45.656051h790.200882c25.085742 0 45.656051 20.570309 45.656051 45.656051V605.507104c0 17.56002 14.549731 32.10975 32.10975 32.10975 17.56002 0 32.10975-14.549731 32.10975-32.10975v-616.607545c0-60.707496-49.168055-110.377266-109.875551-110.377266H116.899559c-60.707496 0-109.875551 49.66977-109.875551 110.377266V679.760902c0 60.707496 49.168055 110.377266 109.875551 110.377266h543.858893c17.56002 0 32.10975-14.549731 32.10975-32.611465z"  horiz-adv-x="1024" />

    
    <glyph glyph-name="clients_nor" unicode="&#58882;" d="M844.8 640H716.8V716.8A76.8 76.8 0 0 1 640 793.6h-256A76.8 76.8 0 0 1 307.2 716.8V640H179.2A128 128 0 0 1 51.2 512v-409.6A128 128 0 0 1 179.2-25.6h665.6a128 128 0 0 1 128 128v409.6A128 128 0 0 1 844.8 640zM358.4 716.8a25.6 25.6 0 0 0 25.6 25.6h256a25.6 25.6 0 0 0 25.6-25.6V640H358.4zM921.6 384h-256a153.6 153.6 0 0 0-307.2 0H102.4V435.2h819.2z"  horiz-adv-x="1024" />

    
    <glyph glyph-name="yonghu" unicode="&#58908;" d="M827.812-2.068H196.189c-42.66 0-77.366 34.809-77.366 77.595 0 62.872 24.486 121.982 68.947 166.442s103.571 68.945 166.442 68.945h315.581c62.87 0 121.979-24.485 166.439-68.945s68.945-103.57 68.945-166.442c0.001-42.787-34.705-77.595-77.365-77.595z m-473.6 262.982c-102.224 0-185.389-83.165-185.389-185.388 0-15.216 12.276-27.595 27.366-27.595h631.622c15.09 0 27.366 12.379 27.366 27.595 0 102.223-83.163 185.388-185.385 185.388h-315.58z m158.15 62.834c-62.871 0-121.981 24.485-166.442 68.945s-68.947 103.569-68.947 166.439 24.486 121.981 68.947 166.442c44.461 44.461 103.571 68.947 166.442 68.947 62.87 0 121.979-24.486 166.439-68.947 44.46-44.461 68.945-103.571 68.945-166.442s-24.485-121.979-68.945-166.439c-44.459-44.46-103.569-68.945-166.439-68.945z m0 420.773c-102.224 0-185.389-83.165-185.389-185.389 0-102.221 83.165-185.384 185.389-185.384 102.222 0 185.385 83.163 185.385 185.384 0 102.224-83.163 185.389-185.385 185.389z"  horiz-adv-x="1024" />

    
    <glyph glyph-name="clients" unicode="&#58889;" d="M512 832h960a64 64 0 0 0 0-128H512a64 64 0 0 0 0 128zM512 448h960a64 64 0 0 0 0-128H512a64 64 0 0 0 0 128zM512 64h960a64 64 0 0 0 0-128H512a64 64 0 0 0 0 128zM74.88 512h106.24A74.88 74.88 0 0 0 256 437.12v-106.24A74.88 74.88 0 0 0 181.12 256H74.88A74.88 74.88 0 0 0 0 330.88V437.12A74.88 74.88 0 0 0 74.88 512zM74.88 128h106.24A74.88 74.88 0 0 0 256 53.12v-106.24A74.88 74.88 0 0 0 181.12-128H74.88A74.88 74.88 0 0 0 0-53.12v106.24A74.88 74.88 0 0 0 74.88 128zM74.88 896h106.24A74.88 74.88 0 0 0 256 821.12v-106.24A74.88 74.88 0 0 0 181.12 640H74.88A74.88 74.88 0 0 0 0 714.88V821.12A74.88 74.88 0 0 0 74.88 896z"  horiz-adv-x="1536" />

    
    <glyph glyph-name="table_string" unicode="&#58898;" d="M98.2 746.1c0 25.9 25.9 51.7 51.7 51.7H274c25.9 0 51.7-25.9 51.7-51.7V622c0-25.9-25.9-51.7-51.7-51.7H149.9c-25.9 0-51.7 25.9-51.7 51.7V746.1z m0-300c0 25.9 25.9 51.7 51.7 51.7H274c25.9 0 51.7-25.9 51.7-51.7V322c0-25.9-25.9-51.7-51.7-51.7H149.9c-25.9 0-51.7 25.9-51.7 51.7V446.1z m0-300c0 25.9 25.9 51.7 51.7 51.7H274c25.9 0 51.7-25.9 51.7-51.7V22c0-25.9-25.9-51.7-51.7-51.7H149.9c-25.9 0-51.7 25.9-51.7 51.7V146.1z m300 600c0 25.9 25.9 51.7 51.7 51.7H574c25.9 0 51.7-25.9 51.7-51.7V622c0-25.9-25.9-51.7-51.7-51.7H449.9c-25.9 0-51.7 25.9-51.7 51.7V746.1z m0-300c0 25.9 25.9 51.7 51.7 51.7H574c25.9 0 51.7-25.9 51.7-51.7V322c0-25.9-25.9-51.7-51.7-51.7H449.9c-25.9 0-51.7 25.9-51.7 51.7V446.1z m0-300c0 25.9 25.9 51.7 51.7 51.7H574c25.9 0 51.7-25.9 51.7-51.7V22c0-25.9-25.9-51.7-51.7-51.7H449.9c-25.9 0-51.7 25.9-51.7 51.7V146.1z m300 600c0 25.9 25.9 51.7 51.7 51.7H874c25.9 0 51.7-25.9 51.7-51.7V622c0-25.9-25.9-51.7-51.7-51.7H749.9c-25.9 0-51.7 25.9-51.7 51.7V746.1z m0-300c0 25.9 25.9 51.7 51.7 51.7H874c25.9 0 51.7-25.9 51.7-51.7V322c0-25.9-25.9-51.7-51.7-51.7H749.9c-25.9 0-51.7 25.9-51.7 51.7V446.1z m0-300c0 25.9 25.9 51.7 51.7 51.7H874c25.9 0 51.7-25.9 51.7-51.7V22c0-25.9-25.9-51.7-51.7-51.7H749.9c-25.9 0-51.7 25.9-51.7 51.7V146.1z"  horiz-adv-x="1024" />

    
    <glyph glyph-name="xiaoxi1" unicode="&#58892;" d="M275.588 79.979l8.933 89.255-1.932 1.36C200.233 230.475 153 318.524 153 412.167c0 42.658 9.604 84.023 28.545 122.948 18.214 37.43 44.245 71.007 77.37 99.798 67.702 58.846 157.583 91.254 253.085 91.254s185.383-32.408 253.085-91.254c33.125-28.791 59.155-62.368 77.37-99.798C861.396 496.19 871 454.825 871 412.167s-9.604-84.023-28.545-122.948c-18.215-37.43-44.245-71.007-77.37-99.798-67.702-58.846-157.583-91.254-253.085-91.254-37.682 0-74.789 5.078-110.316 15.096l-126.096-33.284z m24.545 114.95l15.985-11.23-6.373-63.677 92.299 24.364 6.671-1.934c33.173-9.474 67.942-14.285 103.285-14.285 181.411 0 329 127.402 329 284s-147.589 284-329 284-329-127.402-329-284c0-83.896 42.69-163.069 117.133-217.238z"  horiz-adv-x="1024" />

    
    <glyph glyph-name="ico_reboot" unicode="&#59091;" d="M693.267081 851.478261c-19.080745 6.360248-31.801242 0-38.161491-19.080745-6.360248-19.080745 0-31.801242 19.080745-38.161491 171.726708-63.602484 279.850932-228.968944 279.850932-413.416149 0-248.049689-197.167702-445.217391-445.217391-445.217392s-445.217391 197.167702-445.217392 445.217392c0 171.726708 101.763975 330.732919 260.770187 407.0559 6.360248 0 12.720497 6.360248 19.080745 6.360249 19.080745 6.360248 25.440994 25.440994 19.080745 38.161491-6.360248 19.080745-25.440994 25.440994-38.16149 19.080745-6.360248 0-12.720497-6.360248-19.080746-6.360249C114.484472 762.434783 0 577.987578 0 380.819876c0-279.850932 228.968944-508.819876 508.819876-508.819876s508.819876 228.968944 508.819876 508.819876c0 209.888199-127.204969 394.335404-324.372671 470.658385zM508.819876 349.018634c25.440994 0 44.521739 19.080745 44.521739 38.16149V832.397516c0 25.440994-19.080745 44.521739-44.521739 44.521739s-44.521739-25.440994-44.521739-44.521739v-445.217392c0-19.080745 19.080745-38.161491 44.521739-38.16149z"  horiz-adv-x="1024" />

    
    <glyph glyph-name="wenjianjiak" unicode="&#58953;" d="M1006.933333 537.6c-8.533333 8.533333-17.066667 17.066667-34.133333 17.066667h-51.2V691.2c0 17.066667-8.533333 34.133333-34.133333 34.133333h8.533333-580.266667l-42.666666 59.733334c-8.533333 17.066667-17.066667 17.066667-34.133334 17.066666H42.666667c-25.6 0-42.666667-17.066667-42.666667-42.666666v-759.466667c0-34.133333 25.6-42.666667 42.666667-42.666667h768c17.066667 0 25.6 8.533333 34.133333 25.6l179.2 512c0 17.066667-8.533333 34.133333-17.066667 42.666667zM76.8 716.8h128l42.666667-59.733333c8.533333-8.533333 8.533333-17.066667 34.133333-17.066667h563.2v-85.333333H204.8c-17.066667 0-34.133333-8.533333-42.666667-25.6l-85.333333-256V716.8zM768 42.666667H85.333333l145.066667 435.2h691.2L768 42.666667z"  horiz-adv-x="1024" />

    
    <glyph glyph-name="xiaoxi" unicode="&#58881;" d="M944.336423 5.58192H79.466617A72.251243 72.251243 0 0 0 0 67.010103v67.717258a57.966753 57.966753 0 0 0 20.476061 43.194738l99.942677 107.011794v199.885355a314.990069 314.990069 0 0 0 108.230608 238.204841 370.519195 370.519195 0 0 0 113.593384 68.984824 45.047334 45.047334 0 0 1 26.326364 22.572419A153.667961 153.667961 0 0 0 511.90152 895.80304a153.667961 153.667961 0 0 0 143.332425-81.124203 44.998581 44.998581 0 0 1 26.326364-22.621172 373.68811 373.68811 0 0 0 113.593385-68.984824 314.990069 314.990069 0 0 0 108.230607-238.20484v-199.885356l99.942678-107.011794a57.966753 57.966753 0 0 0 20.476061-43.194737V67.010103a72.251243 72.251243 0 0 0-79.466617-61.525688z m-0.975051 129.145441l-99.455152 106.865536a55.480374 55.480374 0 0 0-20.476061 43.292243v199.885356a259.363437 259.363437 0 0 1-87.267021 194.327567 300.364311 300.364311 0 0 1-111.155758 62.110718 61.623192 61.623192 0 0 0-44.852324 41.342142 30.421576 30.421576 0 0 1-2.925152 9.019217 65.425889 65.425889 0 0 1-49.240051 35.930611h-2.437626a85.755693 85.755693 0 0 1-13.650707 1.121308 91.069718 91.069718 0 0 1-13.650707-1.17006 19.50101 19.50101 0 0 1-2.437627 0 65.523395 65.523395 0 0 1-49.240051-35.930612 30.567834 30.567834 0 0 1-2.925151-9.019217 61.57444 61.57444 0 0 0-44.852324-41.390894A300.364311 300.364311 0 0 1 287.639902 679.000558a259.314684 259.314684 0 0 1-87.267021-194.278815v-199.885355a56.114157 56.114157 0 0 0-20.476061-43.292243l-99.455153-106.865537-0.97505-66.98597 432.434903-0.341268 432.434903 0.341268zM440.722832-45.120706a120.223728 120.223728 0 0 1 59.478082-19.988536c3.900202-0.292515 7.800404 0 11.700606 0h11.700606a120.223728 120.223728 0 0 1 59.478081 19.988536 85.999455 85.999455 0 0 1 25.838839 28.325217h82.879294a140.992304 140.992304 0 0 0-55.57788-73.665066 210.708416 210.708416 0 0 0-110.668233-36.613147c-4.387727-0.292515-8.775455-0.975051-13.650707-0.975051-4.875253 0-9.26298 0.682535-13.650707 0.975051a210.708416 210.708416 0 0 0-110.668234 36.613147 140.992304 140.992304 0 0 0-55.577879 73.665066h82.879294a85.999455 85.999455 0 0 1 25.838838-28.325217z m0 0"  horiz-adv-x="1024" />

    
    <glyph glyph-name="charts" unicode="&#58883;" d="M128 409.6V748.8c0 6.4 6.4 12.8 12.8 19.2 6.4 0 19.2 0 19.2-6.4 0 0 0-6.4 6.4-12.8v-672c0-19.2 19.2-38.4 38.4-38.4h665.6c6.4 0 19.2-6.4 19.2-12.8 6.4-12.8 0-25.6-19.2-25.6H204.8c-19.2 0-38.4 6.4-51.2 19.2-12.8 19.2-25.6 32-25.6 57.6V409.6z m0 0M556.8 499.2c6.4 12.8 19.2 19.2 25.6 32 19.2 12.8 32 25.6 51.2 44.8l25.6 25.6c12.8 6.4 19.2 19.2 32 25.6l6.4 6.4h-32c-6.4 0-19.2 6.4-19.2 19.2 0 6.4 6.4 19.2 12.8 19.2h57.6c19.2 0 32-12.8 38.4-32v-64c0-12.8-6.4-19.2-19.2-19.2-12.8 0-19.2 6.4-19.2 19.2v25.6l-6.4-6.4-25.6-25.6-44.8-44.8c-6.4-6.4-19.2-12.8-25.6-25.6-12.8-6.4-25.6-19.2-32-25.6-12.8-12.8-32-12.8-44.8-6.4l-19.2 19.2c-12.8 6.4-19.2 12.8-25.6 19.2-12.8 12.8-25.6 25.6-44.8 38.4l-6.4-6.4-25.6-25.6c-19.2-12.8-32-32-44.8-44.8-12.8-6.4-19.2-19.2-32-25.6l-32-32c-6.4-6.4-12.8-12.8-19.2-12.8-12.8-6.4-25.6 6.4-25.6 19.2 0 6.4 6.4 12.8 6.4 19.2 6.4 0 12.8 6.4 19.2 12.8 6.4 6.4 19.2 12.8 25.6 25.6 0 0 6.4 6.4 12.8 6.4l19.2 19.2c12.8 12.8 32 25.6 44.8 38.4l25.6 25.6c12.8 12.8 19.2 19.2 32 19.2s19.2-6.4 32-12.8l38.4-38.4c12.8-6.4 19.2-19.2 38.4-32-6.4 6.4 0 6.4 0 0zM454.4 262.4v-102.4c0-12.8-6.4-19.2-19.2-19.2-6.4 0-19.2 0-19.2 12.8v6.4 211.2c0 6.4 6.4 12.8 19.2 12.8 12.8 0 19.2-6.4 19.2-19.2v-102.4z m307.2 0v-102.4c0-12.8-6.4-19.2-19.2-19.2-12.8 0-19.2 6.4-19.2 19.2V371.20000000000005c0 12.8 6.4 19.2 19.2 19.2 12.8 0 19.2-6.4 19.2-19.2v-108.8z m-460.8-51.2v-57.6c0-12.8-12.8-19.2-19.2-19.2-12.8 0-19.2 6.4-19.2 19.2V268.79999999999995c0 12.8 6.4 19.2 19.2 19.2 12.8 0 19.2-6.4 19.2-19.2v-57.6z m268.8 0v57.6c0 6.4 6.4 12.8 12.8 19.2 6.4 0 19.2 0 19.2-6.4s6.4-6.4 6.4-12.8v-108.8c0-12.8-6.4-19.2-19.2-19.2-12.8 0-19.2 12.8-19.2 19.2v51.2z m0 0"  horiz-adv-x="1024" />

    
    <glyph glyph-name="xinxi" unicode="&#58899;" d="M925.29 896H98.71Q57.2 895.08 29.53 867.4 1.85 839.72 0 797.29v-621.78Q1.85 134 29.52 106.32q27.68-27.67 69.19-28.6h826.58q41.51 0.93 69.19 28.6 27.67 27.68 29.52 69.19V797.29q-1.85 42.44-29.52 70.11Q966.8 895.08 925.29 896z m-14.76-68.27L522.15 417.21 116.24 827.73h794.29z m1.84-681.74H111.63q-18.46 0-30.45 11.99-11.99 11.99-12.91 30.45V778.84l454.8-460.34 432.66 457.57v-587.64q-0.92-18.46-12.91-30.45-11.99-11.99-30.45-11.99z"  horiz-adv-x="1024" />

    


  </font>
</defs>
</svg>
